<svg width="51" height="51" viewBox="0 0 51 51" fill="none" xmlns="http://www.w3.org/2000/svg">
<path d="M25.5 0C11.424 0 0 11.424 0 25.5C0 39.576 11.424 51 25.5 51C39.576 51 51 39.576 51 25.5C51 11.424 39.576 0 25.5 0ZM25.5 45.9C14.2545 45.9 5.1 36.7455 5.1 25.5C5.1 14.2545 14.2545 5.1 25.5 5.1C36.7455 5.1 45.9 14.2545 45.9 25.5C45.9 36.7455 36.7455 45.9 25.5 45.9ZM35.394 16.0395L20.4 31.0335L15.606 26.2395C15.1292 25.7627 14.4825 25.4948 13.8082 25.4948C13.134 25.4948 12.4873 25.7627 12.0105 26.2395C11.5337 26.7163 11.2658 27.363 11.2658 28.0372C11.2658 28.7115 11.5337 29.3582 12.0105 29.835L18.615 36.4395C19.6095 37.434 21.216 37.434 22.2105 36.4395L39.015 19.635C39.2514 19.3991 39.4389 19.1189 39.5669 18.8104C39.6949 18.5019 39.7607 18.1712 39.7607 17.8372C39.7607 17.5033 39.6949 17.1726 39.5669 16.8641C39.4389 16.5556 39.2514 16.2754 39.015 16.0395C38.0205 15.045 36.3885 15.045 35.394 16.0395Z" fill="#16C79A"/>
</svg>
