<svg width="50" height="50" viewBox="0 0 50 50" fill="none" xmlns="http://www.w3.org/2000/svg">
<path d="M39.8751 26.9584C39.9584 26.3334 40.0001 25.6876 40.0001 25.0001C40.0001 24.3334 39.9584 23.6668 39.8542 23.0418L44.0834 19.7501C44.4584 19.4584 44.5626 18.8959 44.3334 18.4793L40.3334 11.5626C40.0834 11.1043 39.5626 10.9584 39.1042 11.1043L34.1251 13.1043C33.0834 12.3126 31.9792 11.6459 30.7501 11.1459L30.0001 5.85426C29.9167 5.35426 29.5001 5.00009 29.0001 5.00009H21.0001C20.5001 5.00009 20.1042 5.35426 20.0209 5.85426L19.2709 11.1459C18.0417 11.6459 16.9167 12.3334 15.8959 13.1043L10.9167 11.1043C10.4584 10.9376 9.93757 11.1043 9.68757 11.5626L5.7084 18.4793C5.4584 18.9168 5.54173 19.4584 5.9584 19.7501L10.1876 23.0418C10.0834 23.6668 10.0001 24.3543 10.0001 25.0001C10.0001 25.6459 10.0417 26.3334 10.1459 26.9584L5.91673 30.2501C5.54173 30.5418 5.43757 31.1043 5.66673 31.5209L9.66673 38.4376C9.91673 38.8959 10.4376 39.0418 10.8959 38.8959L15.8751 36.8959C16.9167 37.6876 18.0209 38.3543 19.2501 38.8543L20.0001 44.1459C20.1042 44.6459 20.5001 45.0001 21.0001 45.0001H29.0001C29.5001 45.0001 29.9167 44.6459 29.9792 44.1459L30.7292 38.8543C31.9584 38.3543 33.0834 37.6876 34.1042 36.8959L39.0834 38.8959C39.5417 39.0626 40.0626 38.8959 40.3126 38.4376L44.3126 31.5209C44.5626 31.0626 44.4584 30.5418 44.0626 30.2501L39.8751 26.9584ZM25.0001 32.5001C20.8751 32.5001 17.5001 29.1251 17.5001 25.0001C17.5001 20.8751 20.8751 17.5001 25.0001 17.5001C29.1251 17.5001 32.5001 20.8751 32.5001 25.0001C32.5001 29.1251 29.1251 32.5001 25.0001 32.5001Z" fill="#CC7600"/>
</svg>
