<svg width="259" height="192" viewBox="0 0 259 192" fill="none" xmlns="http://www.w3.org/2000/svg">
<circle cx="96" cy="96" r="96" fill="#CC7600"/>
<path d="M43.3832 109.18C41.5352 109.18 39.7712 108.868 38.0912 108.244C36.4352 107.596 35.1392 106.768 34.2032 105.76L35.0312 104.392C35.9192 105.328 37.1072 106.096 38.5952 106.696C40.1072 107.272 41.6912 107.56 43.3472 107.56C45.7472 107.56 47.5592 107.104 48.7832 106.192C50.0072 105.28 50.6192 104.092 50.6192 102.628C50.6192 101.5 50.2952 100.6 49.6472 99.928C48.9992 99.256 48.1952 98.74 47.2352 98.38C46.2752 98.02 44.9792 97.648 43.3472 97.264C41.4992 96.808 40.0112 96.364 38.8832 95.932C37.7792 95.5 36.8312 94.84 36.0392 93.952C35.2712 93.04 34.8872 91.828 34.8872 90.316C34.8872 89.092 35.2112 87.976 35.8592 86.968C36.5072 85.936 37.4912 85.12 38.8112 84.52C40.1552 83.92 41.8232 83.62 43.8152 83.62C45.2072 83.62 46.5752 83.824 47.9192 84.232C49.2632 84.64 50.4272 85.192 51.4112 85.888L50.7272 87.364C49.7192 86.668 48.6032 86.14 47.3792 85.78C46.1792 85.42 44.9912 85.24 43.8152 85.24C41.4872 85.24 39.7232 85.708 38.5232 86.644C37.3232 87.58 36.7232 88.792 36.7232 90.28C36.7232 91.408 37.0472 92.308 37.6952 92.98C38.3432 93.652 39.1472 94.168 40.1072 94.528C41.0672 94.888 42.3752 95.272 44.0312 95.68C45.8792 96.136 47.3552 96.58 48.4592 97.012C49.5632 97.444 50.4992 98.104 51.2672 98.992C52.0592 99.856 52.4552 101.032 52.4552 102.52C52.4552 103.744 52.1192 104.86 51.4472 105.868C50.7992 106.876 49.7912 107.68 48.4232 108.28C47.0552 108.88 45.3752 109.18 43.3832 109.18ZM74.5727 90.208V109H72.8447V104.968C72.2207 106.288 71.2967 107.32 70.0727 108.064C68.8487 108.784 67.4087 109.144 65.7527 109.144C63.3047 109.144 61.3847 108.46 59.9927 107.092C58.6007 105.724 57.9047 103.756 57.9047 101.188V90.208H59.7047V101.044C59.7047 103.156 60.2447 104.764 61.3247 105.868C62.4047 106.972 63.9287 107.524 65.8967 107.524C68.0087 107.524 69.6767 106.864 70.9007 105.544C72.1487 104.224 72.7727 102.448 72.7727 100.216V90.208H74.5727ZM105.603 90.064C107.931 90.064 109.755 90.748 111.075 92.116C112.419 93.484 113.091 95.452 113.091 98.02V109H111.291V98.164C111.291 96.052 110.775 94.444 109.743 93.34C108.711 92.236 107.271 91.684 105.423 91.684C103.311 91.684 101.631 92.344 100.383 93.664C99.1587 94.984 98.5467 96.76 98.5467 98.992V109H96.7467V98.164C96.7467 96.052 96.2307 94.444 95.1987 93.34C94.1667 92.236 92.7267 91.684 90.8787 91.684C88.7667 91.684 87.0867 92.344 85.8387 93.664C84.6147 94.984 84.0027 96.76 84.0027 98.992V109H82.2027V90.208H83.9307V94.24C84.5547 92.92 85.4787 91.9 86.7027 91.18C87.9507 90.436 89.4267 90.064 91.1307 90.064C92.8347 90.064 94.2747 90.448 95.4507 91.216C96.6507 91.984 97.5027 93.112 98.0067 94.6C98.6307 93.208 99.6027 92.104 100.923 91.288C102.267 90.472 103.827 90.064 105.603 90.064ZM143.923 90.064C146.251 90.064 148.075 90.748 149.395 92.116C150.739 93.484 151.411 95.452 151.411 98.02V109H149.611V98.164C149.611 96.052 149.095 94.444 148.063 93.34C147.031 92.236 145.591 91.684 143.743 91.684C141.631 91.684 139.951 92.344 138.703 93.664C137.479 94.984 136.867 96.76 136.867 98.992V109H135.067V98.164C135.067 96.052 134.551 94.444 133.519 93.34C132.487 92.236 131.047 91.684 129.199 91.684C127.087 91.684 125.407 92.344 124.159 93.664C122.935 94.984 122.323 96.76 122.323 98.992V109H120.523V90.208H122.251V94.24C122.875 92.92 123.799 91.9 125.023 91.18C126.271 90.436 127.747 90.064 129.451 90.064C131.155 90.064 132.595 90.448 133.771 91.216C134.971 91.984 135.823 93.112 136.327 94.6C136.951 93.208 137.923 92.104 139.243 91.288C140.587 90.472 142.147 90.064 143.923 90.064ZM174.755 100.036H158.591C158.639 101.5 159.011 102.808 159.707 103.96C160.403 105.088 161.339 105.964 162.515 106.588C163.715 107.212 165.059 107.524 166.547 107.524C167.771 107.524 168.899 107.308 169.931 106.876C170.987 106.42 171.863 105.76 172.559 104.896L173.603 106.084C172.787 107.068 171.755 107.824 170.507 108.352C169.283 108.88 167.951 109.144 166.511 109.144C164.639 109.144 162.971 108.736 161.507 107.92C160.043 107.104 158.891 105.976 158.051 104.536C157.235 103.096 156.827 101.452 156.827 99.604C156.827 97.78 157.211 96.148 157.979 94.708C158.771 93.244 159.851 92.104 161.219 91.288C162.587 90.472 164.123 90.064 165.827 90.064C167.531 90.064 169.055 90.472 170.399 91.288C171.767 92.08 172.835 93.196 173.603 94.636C174.395 96.076 174.791 97.708 174.791 99.532L174.755 100.036ZM165.827 91.648C164.507 91.648 163.319 91.948 162.263 92.548C161.207 93.124 160.355 93.952 159.707 95.032C159.083 96.088 158.723 97.288 158.627 98.632H173.027C172.955 97.288 172.595 96.088 171.947 95.032C171.299 93.976 170.447 93.148 169.391 92.548C168.335 91.948 167.147 91.648 165.827 91.648ZM182.087 94.312C182.663 92.944 183.563 91.9 184.787 91.18C186.011 90.436 187.499 90.064 189.251 90.064V91.828L188.819 91.792C186.731 91.792 185.099 92.452 183.923 93.772C182.747 95.068 182.159 96.88 182.159 99.208V109H180.359V90.208H182.087V94.312ZM204.463 83.8C206.647 83.8 208.543 84.16 210.151 84.88C211.783 85.6 213.031 86.632 213.895 87.976C214.759 89.32 215.191 90.916 215.191 92.764C215.191 94.588 214.759 96.184 213.895 97.552C213.031 98.896 211.783 99.928 210.151 100.648C208.543 101.368 206.647 101.728 204.463 101.728H198.775V109H194.095V83.8H204.463ZM204.247 97.768C206.287 97.768 207.835 97.336 208.891 96.472C209.947 95.608 210.475 94.372 210.475 92.764C210.475 91.156 209.947 89.92 208.891 89.056C207.835 88.192 206.287 87.76 204.247 87.76H198.775V97.768H204.247ZM226.601 89.56C229.433 89.56 231.593 90.244 233.081 91.612C234.593 92.956 235.349 94.996 235.349 97.732V109H231.101V106.66C230.549 107.5 229.757 108.148 228.725 108.604C227.717 109.036 226.493 109.252 225.053 109.252C223.613 109.252 222.353 109.012 221.273 108.532C220.193 108.028 219.353 107.344 218.753 106.48C218.177 105.592 217.889 104.596 217.889 103.492C217.889 101.764 218.525 100.384 219.797 99.352C221.093 98.296 223.121 97.768 225.881 97.768H230.849V97.48C230.849 96.136 230.441 95.104 229.625 94.384C228.833 93.664 227.645 93.304 226.061 93.304C224.981 93.304 223.913 93.472 222.857 93.808C221.825 94.144 220.949 94.612 220.229 95.212L218.465 91.936C219.473 91.168 220.685 90.58 222.101 90.172C223.517 89.764 225.017 89.56 226.601 89.56ZM225.989 105.976C227.117 105.976 228.113 105.724 228.977 105.22C229.865 104.692 230.489 103.948 230.849 102.988V100.756H226.205C223.613 100.756 222.317 101.608 222.317 103.312C222.317 104.128 222.641 104.776 223.289 105.256C223.937 105.736 224.837 105.976 225.989 105.976ZM258.772 89.776L249.772 110.548C248.932 112.636 247.912 114.1 246.712 114.94C245.512 115.804 244.06 116.236 242.356 116.236C241.396 116.236 240.448 116.08 239.512 115.768C238.576 115.456 237.808 115.024 237.208 114.472L239.008 111.16C239.44 111.568 239.944 111.892 240.52 112.132C241.12 112.372 241.72 112.492 242.32 112.492C243.112 112.492 243.76 112.288 244.264 111.88C244.792 111.472 245.272 110.788 245.704 109.828L246.028 109.072L237.64 89.776H242.32L248.368 103.996L254.452 89.776H258.772Z" fill="#FCFCFC"/>
</svg>
