<svg width="50" height="50" viewBox="0 0 50 50" fill="none" xmlns="http://www.w3.org/2000/svg">
<path d="M24.9998 4.16667C13.4998 4.16667 4.1665 13.5 4.1665 25C4.1665 36.5 13.4998 45.8333 24.9998 45.8333C36.4998 45.8333 45.8332 36.5 45.8332 25C45.8332 13.5 36.4998 4.16667 24.9998 4.16667ZM27.9373 37.6875V38.8958C27.9373 40.4167 26.6873 41.6667 25.1665 41.6667H25.1457C23.6248 41.6667 22.3748 40.4167 22.3748 38.8958V37.6458C19.604 37.0625 17.1457 35.5417 16.104 32.9792C15.6248 31.8333 16.5207 30.5625 17.7707 30.5625H18.2707C19.0415 30.5625 19.6665 31.0833 19.9582 31.8125C20.5623 33.375 22.1457 34.4583 25.1873 34.4583C29.2707 34.4583 30.1873 32.4167 30.1873 31.1458C30.1873 29.4167 29.2707 27.7917 24.6248 26.6875C19.4582 25.4375 15.9165 23.3125 15.9165 19.0417C15.9165 15.4583 18.8123 13.125 22.3957 12.3542V11.1042C22.3957 9.58334 23.6457 8.33334 25.1665 8.33334H25.1873C26.7082 8.33334 27.9582 9.58334 27.9582 11.1042V12.3958C30.8332 13.1042 32.6457 14.8958 33.4373 17.1042C33.854 18.25 32.979 19.4583 31.7498 19.4583H31.2082C30.4373 19.4583 29.8123 18.9167 29.604 18.1667C29.1248 16.5833 27.8123 15.5625 25.1873 15.5625C22.0623 15.5625 20.1873 16.9792 20.1873 18.9792C20.1873 20.7292 21.5415 21.875 25.7498 22.9583C29.9582 24.0417 34.4582 25.8542 34.4582 31.1042C34.4165 34.9167 31.5623 37 27.9373 37.6875Z" fill="#CC7600"/>
</svg>
