<svg width="24" height="24" viewBox="0 0 24 24" fill="none" xmlns="http://www.w3.org/2000/svg">
<path d="M2.3999 11.9999C2.3999 9.45382 3.41133 7.01203 5.21168 5.21168C7.01203 3.41133 9.45382 2.3999 11.9999 2.3999C14.546 2.3999 16.9878 3.41133 18.7881 5.21168C20.5885 7.01203 21.5999 9.45382 21.5999 11.9999C21.5999 14.546 20.5885 16.9878 18.7881 18.7881C16.9878 20.5885 14.546 21.5999 11.9999 21.5999C9.45382 21.5999 7.01203 20.5885 5.21168 18.7881C3.41133 16.9878 2.3999 14.546 2.3999 11.9999ZM8.9999 11.3999C9.31816 11.3999 9.62339 11.2735 9.84843 11.0484C10.0735 10.8234 10.1999 10.5182 10.1999 10.1999C10.1999 9.88164 10.0735 9.57642 9.84843 9.35137C9.62339 9.12633 9.31816 8.9999 8.9999 8.9999C8.68164 8.9999 8.37642 9.12633 8.15137 9.35137C7.92633 9.57642 7.7999 9.88164 7.7999 10.1999C7.7999 10.5182 7.92633 10.8234 8.15137 11.0484C8.37642 11.2735 8.68164 11.3999 8.9999 11.3999ZM16.1999 10.1999C16.1999 9.88164 16.0735 9.57642 15.8484 9.35137C15.6234 9.12633 15.3182 8.9999 14.9999 8.9999C14.6816 8.9999 14.3764 9.12633 14.1514 9.35137C13.9263 9.57642 13.7999 9.88164 13.7999 10.1999C13.7999 10.5182 13.9263 10.8234 14.1514 11.0484C14.3764 11.2735 14.6816 11.3999 14.9999 11.3999C15.3182 11.3999 15.6234 11.2735 15.8484 11.0484C16.0735 10.8234 16.1999 10.5182 16.1999 10.1999ZM16.2743 16.0679C16.7255 15.6479 16.3547 15.2087 16.3403 15.1919C16.2565 15.0971 16.1675 15.007 16.0739 14.9219C15.8255 14.6988 15.5549 14.5017 15.2663 14.3339C14.5463 13.9091 13.4687 13.4999 12.0023 13.4999C10.5359 13.4999 9.4571 13.9079 8.7359 14.3327C8.3759 14.5427 8.1095 14.7563 7.9271 14.9207C7.83307 15.0058 7.74374 15.0959 7.6595 15.1907L7.6427 15.2123L7.6367 15.2195L7.6343 15.2219L7.6331 15.2231L8.0999 15.5999L7.6319 15.2243C7.5365 15.3484 7.49337 15.5048 7.51171 15.6603C7.53005 15.8157 7.6084 15.9579 7.73006 16.0563C7.85171 16.1548 8.00704 16.2019 8.16289 16.1874C8.31875 16.173 8.4628 16.0982 8.5643 15.9791L8.5679 15.9755C8.62029 15.9179 8.67556 15.8631 8.7335 15.8111C8.8619 15.6935 9.0635 15.5315 9.3431 15.3671C9.8987 15.0407 10.7711 14.6999 12.0023 14.6999C13.2335 14.6999 14.1047 15.0407 14.6579 15.3671C14.9375 15.5315 15.1379 15.6935 15.2663 15.8099C15.3238 15.8619 15.3787 15.9168 15.4307 15.9743L15.4343 15.9779C15.5342 16.1006 15.6785 16.1789 15.8358 16.1958C15.9931 16.2127 16.1507 16.1667 16.2743 16.0679Z" fill="#FCFCFC"/>
</svg>
